<svg width="100%" height="100%" id="svg" viewBox="0 0 1440 700" xmlns="http://www.w3.org/2000/svg" class="transition duration-300 ease-in-out delay-150"><defs><linearGradient id="gradient" x1="50%" y1="100%" x2="50%" y2="0%"><stop offset="5%" stop-color="#8ed1fc"></stop><stop offset="95%" stop-color="#8ed1fc"></stop></linearGradient></defs><path d="M 0,700 C 0,700 0,175 0,175 C 90.98564593301438,213.16267942583733 181.97129186602876,251.32535885167462 274,238 C 366.02870813397124,224.67464114832538 459.1004784688995,159.86124401913875 546,135 C 632.8995215311005,110.13875598086125 713.6267942583733,125.22966507177031 823,134 C 932.3732057416267,142.7703349282297 1070.3923444976076,145.2200956937799 1178,151 C 1285.6076555023924,156.7799043062201 1362.8038277511962,165.88995215311004 1440,175 C 1440,175 1440,700 1440,700 Z" stroke="none" stroke-width="0" fill="url(#gradient)" fill-opacity="0.4" class="transition-all duration-300 ease-in-out delay-150 path-0" transform="rotate(-180 720 350)"></path><defs><linearGradient id="gradient" x1="50%" y1="100%" x2="50%" y2="0%"><stop offset="5%" stop-color="#8ed1fc"></stop><stop offset="95%" stop-color="#8ed1fc"></stop></linearGradient></defs><path d="M 0,700 C 0,700 0,350 0,350 C 101.97129186602868,338.2392344497608 203.94258373205736,326.47846889952154 297,332 C 390.05741626794264,337.52153110047846 474.2009569377991,360.32535885167465 558,370 C 641.7990430622009,379.67464114832535 725.2535885167463,376.2200956937799 832,371 C 938.7464114832537,365.7799043062201 1068.7846889952154,358.79425837320576 1174,355 C 1279.2153110047846,351.20574162679424 1359.6076555023924,350.6028708133971 1440,350 C 1440,350 1440,700 1440,700 Z" stroke="none" stroke-width="0" fill="url(#gradient)" fill-opacity="0.53" class="transition-all duration-300 ease-in-out delay-150 path-1" transform="rotate(-180 720 350)"></path><defs><linearGradient id="gradient" x1="50%" y1="100%" x2="50%" y2="0%"><stop offset="5%" stop-color="#8ed1fc"></stop><stop offset="95%" stop-color="#8ed1fc"></stop></linearGradient></defs><path d="M 0,700 C 0,700 0,525 0,525 C 84.76555023923447,541.0382775119617 169.53110047846894,557.0765550239234 276,565 C 382.46889952153106,572.9234449760766 510.6411483253588,572.7320574162679 619,548 C 727.3588516746412,523.2679425837321 815.9043062200959,473.9952153110047 911,461 C 1006.0956937799041,448.0047846889953 1107.7416267942583,471.287081339713 1197,488 C 1286.2583732057417,504.712918660287 1363.129186602871,514.8564593301435 1440,525 C 1440,525 1440,700 1440,700 Z" stroke="none" stroke-width="0" fill="url(#gradient)" fill-opacity="1" class="transition-all duration-300 ease-in-out delay-150 path-2" transform="rotate(-180 720 350)"></path></svg>